# xmcd CD database file
#
# Track frame offsets:
#	150
#	5561
#	31227
#	52166
#	77031
#	101467
#	125084
#	151031
#	180030
#	202260
#	227955
#	251820
#
# Disc length: 3650 seconds
#
# Revision: 4
# Processed by: cddbd v1.5.1PL0 Copyright (c) Steve Scherf et al.
# Submitted via: CDex 1.51
#
DISCID=990e400c
DTITLE=Makihara Noriyuki - Cicada
DYEAR=1900
DGENRE=
TTITLE0=introduction for Cicada-
TTITLE1=pool
TTITLE2=Hungry Spider
TTITLE3=HAPPY DANCE-Album Version-
TTITLE4=Star Ferry
TTITLE5=Seishun
TTITLE6=STRIPE!
TTITLE7=Konokasa wo tatameba
TTITLE8=The Future Attraction
TTITLE9=BLIND
TTITLE10=Name Of Love
TTITLE11=Cicada
EXTD=
EXTT0=
EXTT1=
EXTT2=
EXTT3=
EXTT4=
EXTT5=
EXTT6=
EXTT7=
EXTT8=
EXTT9=
EXTT10=
EXTT11=
PLAYORDER=
